<svg fill="#228BE6" xmlns="http://www.w3.org/2000/svg"  viewBox="0 0 24 24" width="96px" height="96px"><path d="M 11.566406 2.0097656 C 6.2526816 2.2374844 2 6.631875 2 12 C 2 14.36 2.8223125 16.531141 4.1953125 18.244141 C 4.5653125 18.705141 5.2567813 18.743219 5.6757812 18.324219 L 5.6894531 18.310547 C 6.0444531 17.955547 6.0757188 17.392953 5.7617188 17.001953 C 4.3607188 15.257953 3.6743438 12.916781 4.1523438 10.425781 C 4.7523437 7.2967813 7.2665781 4.76925 10.392578 4.15625 C 15.504578 3.15525 20 7.063 20 12 C 20 13.895 19.337422 15.637766 18.232422 17.009766 C 17.919422 17.397766 17.9595 17.9605 18.3125 18.3125 L 18.324219 18.324219 C 18.740219 18.740219 19.432781 18.710953 19.800781 18.251953 C 21.506781 16.127953 22.363516 13.294484 21.853516 10.271484 C 21.169516 6.2144844 17.943438 2.9247813 13.898438 2.1757812 C 13.105313 2.0289063 12.32551 1.9772344 11.566406 2.0097656 z M 15.283203 7.6679688 C 15.036578 7.6607188 14.787844 7.7439219 14.589844 7.9199219 L 10.792969 11.296875 C 10.362969 11.678875 10.343 12.343 10.75 12.75 L 11.25 13.25 C 11.657 13.657 12.322078 13.637031 12.705078 13.207031 L 16.080078 9.4121094 C 16.432078 9.0161094 16.415016 8.4130625 16.041016 8.0390625 L 15.960938 7.9609375 C 15.773438 7.7739375 15.529828 7.6752187 15.283203 7.6679688 z"/></svg>